<svg preserveAspectRatio="none" overflow="visible" style="display: block;" width="17.3363" height="20.7224" viewBox="0 0 17.3363 20.7224" fill="none" xmlns="http://www.w3.org/2000/svg">
<g id="Group">
<path id="Vector" d="M3.51953 17.9167L5.3544 18.8786L3.80215 20.7223L2.72745 20.2044L3.51953 17.9167Z" fill="black" fill-opacity="0.39"/>
<path id="Vector_2" d="M8.28571 19.791C12.4817 19.6009 15.7291 16.0453 15.5391 11.8494C15.349 7.65341 11.7934 4.40598 7.59747 4.59603C3.4015 4.78608 0.154068 8.34165 0.344121 12.5376C0.534173 16.7336 4.08975 19.981 8.28571 19.791Z" fill="#DC2626"/>
<path id="Vector_3" d="M5.39062 6.26831L14.0191 11.0262L10.4392 13.8301C8.24581 13.4604 7.24939 12.9116 5.80982 11.398L5.39062 6.26831Z" fill="#B91C1C"/>
<path id="Vector_4" d="M11.3775 12.1875C14.6685 12.0384 17.2155 9.24976 17.0664 5.9588C16.9173 2.66785 14.1287 0.120838 10.8377 0.269898C7.54675 0.418959 4.99974 3.20764 5.1488 6.4986C5.29786 9.78955 8.08655 12.3366 11.3775 12.1875Z" fill="#EF4444"/>
</g>
</svg>
